<?xml version="1.0" encoding="UTF-8"?>
<svg viewBox="0 0 288 384" version="1.1" xmlns="http://www.w3.org/2000/svg" xmlns:xlink="http://www.w3.org/1999/xlink">
  <path d="M139.312,60.688 L83.312,4.688 C77.072,-1.56 66.928,-1.56 60.688,4.688 L4.688,60.688 C-1.56,66.936 -1.56,77.064 4.688,83.312 C10.928,89.56 21.072,89.56 27.312,83.312 L56,54.624 L56,368 C56,376.832 63.168,384 72,384 C80.832,384 88,376.832 88,368 L88,54.624 L116.688,83.312 C119.808,86.44 123.904,88 128,88 C132.096,88 136.192,86.44 139.312,83.312 C145.56,77.064 145.56,66.936 139.312,60.688 Z" id="Path"></path>
  <path d="M283.312,300.688 C277.064,294.44 266.936,294.44 260.688,300.688 L232,329.376 L232,16 C232,7.168 224.832,0 216,0 C207.168,0 200,7.168 200,16 L200,329.376 L171.312,300.688 C165.064,294.44 154.928,294.44 148.688,300.688 C142.44,306.936 142.44,317.064 148.688,323.312 L204.688,379.312 C207.816,382.44 211.904,384 216,384 C220.096,384 224.184,382.44 227.312,379.312 L283.312,323.312 C289.56,317.064 289.56,306.936 283.312,300.688 Z" id="Path"></path>
</svg>