<?xml version="1.0" encoding="UTF-8"?>
<svg width="100%" height="100%" viewBox="0 0 32 32" version="1.1" xmlns="http://www.w3.org/2000/svg" xmlns:xlink="http://www.w3.org/1999/xlink">
  <path d="M16,0 C7.16345833,0 0,7.16345833 0,16 C0,24.8365417 7.16345833,32 16,32 C17.081375,32 18.137625,31.8924167 19.1588333,31.6879167 C18.7472083,31.4910417 18.7022917,30.014 19.1093333,29.171875 C19.5624583,28.234375 20.9843333,25.859375 19.5780833,25.0625 C18.1718333,24.265625 18.5624583,23.90625 17.7030833,22.984375 C16.8437083,22.0625 17.1951667,21.9239167 17.1405833,21.6875 C16.9530833,20.875 17.9687083,19.65625 18.0155833,19.53125 C18.0624583,19.40625 18.0624583,18.9375 18.0468333,18.796875 C18.0312083,18.65625 17.40625,18.28125 17.25,18.265625 C17.09375,18.25 17.015625,18.515625 16.796875,18.53125 C16.578125,18.546875 15.625,17.953125 15.421875,17.796875 C15.21875,17.640625 15.125,17.265625 14.84375,16.984375 C14.5625,16.703125 14.53125,16.921875 14.09375,16.75 C13.65625,16.578125 12.25,16.0625 11.171875,15.625 C10.09375,15.1875 10,14.5742083 9.984375,14.140625 C9.96875,13.7070417 9.328125,13.078125 9.02766667,12.625 C8.72729167,12.171875 8.671875,11.546875 8.5625,11.6875 C8.453125,11.828125 9.125,13.46875 9.015625,13.515625 C8.90625,13.5625 8.671875,13.0625 8.359375,12.65625 C8.046875,12.25 8.6875,12.46875 7.6875,10.5 C6.6875,8.53125 8,7.52733333 8.0625,6.5 C8.125,5.47266667 8.90625,6.875 8.5,6.21875 C8.09375,5.5625 8.53125,4.1875 8.21875,3.6875 C7.90625,3.1875 6.125,4.25 6.125,4.25 C6.171875,3.765625 7.6875,2.9375 8.78125,2.171875 C9.875,1.40625 10.5429583,2 11.421875,2.28125 C12.3007917,2.5625 12.359375,2.46875 12.0625,2.1875 C11.765625,1.90625 12.1875,1.765625 12.875,1.875 C13.5625,1.984375 13.75,2.8125 14.796875,2.734375 C15.84375,2.65625 14.90625,2.9375 15.046875,3.203125 C15.1875,3.46875 14.890625,3.4375 14.203125,3.90625 C13.515625,4.375 14.21875,4.375 15.4375,5.265625 C16.65625,6.15625 16.28125,4.671875 16.15625,4.015625 C16.03125,3.359375 17.046875,3.875 17.046875,3.875 C17.796875,4.375 17.6582917,3.9025 18.2051667,4.074375 C18.7520417,4.24625 20.234375,5.5 20.234375,5.5 C18.375,6.515625 19.546875,6.625 19.859375,6.859375 C20.171875,7.09375 19.21875,7.546875 19.21875,7.546875 C18.828125,7.15625 18.765625,7.5625 18.515625,7.703125 C18.265625,7.84375 18.5,8.203125 18.5,8.203125 C17.2070417,8.40625 17.5,9.765625 17.515625,10.09375 C17.53125,10.421875 16.6875,10.921875 16.46875,11.390625 C16.25,11.859375 17.03125,12.875 16.625,12.9375 C16.21875,13 15.8125,11.40625 13.625,12 C12.9655,12.1790417 11.5,12.9375 12.28125,14.484375 C13.0625,16.03125 14.359375,14.046875 14.796875,14.265625 C15.234375,14.484375 14.671875,15.46875 14.765625,15.484375 C14.859375,15.5 16,15.5273333 16.0625,16.859375 C16.125,18.1914167 17.796875,18.078125 18.15625,18.109375 C18.515625,18.140625 19.71875,17.125 19.890625,17.078125 C20.0625,17.03125 20.75,16.453125 22.25,17.3125 C23.75,18.171875 24.515625,18.046875 25.03125,18.40625 C25.546875,18.765625 25.1875,19.484375 25.671875,19.71875 C26.15625,19.953125 28.09375,19.640625 28.578125,20.4375 C29.0625,21.234375 26.578125,25.234375 25.796875,25.671875 C25.015625,26.109375 24.65625,27.109375 23.875,27.75 C23.09375,28.390625 22,29.1835833 20.96875,29.796875 C20.0559167,30.3396667 19.8916667,31.3120833 19.4850417,31.6190417 C26.6456667,30.0283333 32,23.6395833 32,16 C32,7.16345833 24.8365417,0 16,0 Z M19.75,15.015625 C19.53125,15.078125 19.078125,15.484375 17.96875,14.828125 C16.859375,14.171875 16.09375,14.296875 16,14.1875 C16,14.1875 15.90625,13.921875 16.390625,13.875 C17.38525,13.7787083 18.640625,14.796875 18.921875,14.8125 C19.203125,14.828125 19.34375,14.53125 19.84375,14.692375 C20.34375,14.8533333 19.96875,14.953125 19.75,15.015625 Z M14.515625,1.59375 C14.4066667,1.5145 14.605875,1.42325 14.724625,1.265625 C14.7931667,1.17454167 14.7423333,1.02333333 14.828125,0.9375 C15.0625,0.703125 16.21875,0.375 15.9926667,1.015625 C15.7666667,1.65625 14.6875,1.71875 14.515625,1.59375 Z M17.3125,3.625 C16.921875,3.609375 16.002375,3.51220833 16.171875,3.34375 C16.8320417,2.6875 15.921875,2.5 15.359375,2.453125 C14.796875,2.40625 14.5625,2.09375 14.84375,2.0625 C15.125,2.03125 16.25,2.078125 16.4375,2.234375 C16.625,2.390625 17.640625,2.796875 17.703125,3.09375 C17.765625,3.390625 17.703125,3.640625 17.3125,3.625 Z M20.703125,3.515625 C20.390625,3.765625 18.818125,2.61858333 18.515625,2.359375 C17.203125,1.234375 16.5,1.609375 16.224375,1.421875 C15.9486667,1.234375 16.046875,0.984375 16.46875,0.609375 C16.890625,0.234375 18.078125,0.734375 18.765625,0.8125 C19.453125,0.890625 20.25,1.421875 20.265625,2.053375 C20.28125,2.68483333 21.015625,3.265625 20.703125,3.515625 Z" id="Shape"></path>
</svg>