<svg xmlns="http://www.w3.org/2000/svg" viewBox="0 0 24 24">
  <path d="M8.70711686 3.16074563L5.20701964.244063771C4.81700881-.0813545904 4.18299119-.0813545904 3.79298036.244063771L.292883136 3.16074563C-.0976277119 3.48616399-.0976277119 4.01366674.292883136 4.3390851.682893969 4.66450346 1.31691158 4.66450346 1.70692241 4.3390851L3.49997222 2.84491065 3.49997222 19.1666623C3.49997222 19.6266647 3.94798467 20 4.5 20 5.05201533 20 5.50002778 19.6266647 5.50002778 19.1666623L5.50002778 2.84491065 7.29307759 4.3390851C7.488083 4.50200261 7.74409011 4.58325304 8.00009722 4.58325304 8.25610434 4.58325304 8.51211145 4.50200261 8.70711686 4.3390851 9.09762771 4.01366674 9.09762771 3.48616399 8.70711686 3.16074563zM17.7071169 15.6608333C17.316606 15.3354167 16.6835884 15.3354167 16.2930776 15.6608333L14.5000278 17.155 14.5000278.833333333C14.5000278.373333333 14.0520153 0 13.5 0 12.9479847 0 12.4999722.373333333 12.4999722.833333333L12.4999722 17.155 10.7069224 15.6608333C10.3164116 15.3354167 9.68289397 15.3354167 9.29288314 15.6608333 8.90237229 15.98625 8.90237229 16.51375 9.29288314 16.8391667L12.7929804 19.7558333C12.9884858 19.91875 13.2439929 20 13.5 20 13.7560071 20 14.0115142 19.91875 14.2070196 19.7558333L17.7071169 16.8391667C18.0976277 16.51375 18.0976277 15.98625 17.7071169 15.6608333z" transform="translate(3 2)"/>
</svg>
