<svg xmlns="http://www.w3.org/2000/svg" viewBox="0 0 24 24">
  <path d="M17.0068027,14.9659864 L15.9183673,14.9659864 L15.5102041,14.5578231 C16.8707483,13.0612245 17.6870748,11.0204082 17.6870748,8.84353741 C17.6870748,3.94557823 13.7414966,0 8.84353741,0 C3.94557823,0 0,3.94557823 0,8.84353741 C0,13.7414966 3.94557823,17.6870748 8.84353741,17.6870748 C11.0204082,17.6870748 13.0612245,16.8707483 14.5578231,15.5102041 L14.9659864,15.9183673 L14.9659864,17.0068027 L21.7687075,23.8095238 L23.8095238,21.7687075 L17.0068027,14.9659864 L17.0068027,14.9659864 Z M8.84353741,14.9659864 C5.44217687,14.9659864 2.72108844,12.244898 2.72108844,8.84353741 C2.72108844,5.44217687 5.44217687,2.72108844 8.84353741,2.72108844 C12.244898,2.72108844 14.9659864,5.44217687 14.9659864,8.84353741 C14.9659864,12.244898 12.244898,14.9659864 8.84353741,14.9659864 L8.84353741,14.9659864 Z"/>
</svg>
