<svg xmlns="http://www.w3.org/2000/svg" viewBox="0 0 24 24">
  <path d="M22.8707298,20.1983696 C23.2921196,18.4347826 23.066382,16.5784161 22.2346661,14.9671972 C21.9340062,14.4124612 21.560559,13.9006211 21.1244177,13.4446817 C21.5471662,12.6383928 21.6028726,11.6892469 21.277368,10.8390916 C20.9518634,9.98893635 20.2765916,9.31987578 19.4235249,9.00194097 C19.3891692,6.31463508 17.664014,3.94099379 15.1184006,3.07899846 C15.0411491,1.42449535 13.7059394,0.106754683 12.0504658,0.0514363329 C10.3951863,-0.00388198758 8.97496119,1.2218556 8.78746117,2.86762425 C5.98524845,3.59569098 4.08967394,6.20438663 4.26261645,9.0947205 C3.40916149,9.48097829 2.77115682,10.2259317 2.52057451,11.1284938 C2.26999225,12.03125 2.43284164,12.9984472 2.96506211,13.7694099 C2.62558231,14.130823 2.32414599,14.5260093 2.06560557,14.9491459 C1.14635091,16.5137811 0.813276422,18.3540373 1.12538822,20.1414984 C0.233889739,20.5970497 -0.175271752,21.6479037 0.173718957,22.5861801 C0.522709615,23.5246506 1.51902171,24.052795 2.49145963,23.8148292 C3.46409163,23.5770574 4.10423135,22.648486 3.98059006,21.6550854 C3.85714286,20.6616848 3.0089286,19.91809 2.00795806,19.9256599 C1.97049689,19.9256599 1.93594723,19.9347826 1.8994565,19.9369177 C1.63819876,18.3602484 1.93730589,16.7418479 2.74495344,15.3625776 C2.96506211,15.0083463 3.2197205,14.6768245 3.50504656,14.3724767 C4.71933227,15.435559 6.53959627,15.4132376 7.72767856,14.3208463 C7.99068323,14.6378106 8.2210792,14.9802018 8.41595498,15.3431677 C9.14712735,16.7614519 9.35190216,18.3930512 8.99378882,19.9479814 C7.98078415,19.8305513 7.04309009,20.4990295 6.82395185,21.4949534 C6.60461958,22.4910714 7.17488353,23.4914596 8.14363354,23.8103649 C9.11238355,24.1290761 10.1651786,23.6630435 10.5803572,22.7315605 C10.9955357,21.7998835 10.6383928,20.7053571 9.75349376,20.1979814 C10.1764363,18.4345885 9.95050465,16.5778338 9.11743011,14.9671972 C8.875,14.5176631 8.58365684,14.0964674 8.24883538,13.710986 C8.88703414,12.7338897 8.93808229,11.4854425 8.38218166,10.4594332 C7.82628104,9.4334239 6.75252328,8.79444875 5.58559781,8.79522514 C5.40430902,8.79522514 5.22321431,8.81017083 5.04444875,8.8402562 C5.00116462,6.47457297 6.53668477,4.36898291 8.80221272,3.68730589 C9.0221273,5.21059781 10.3022127,6.35753103 11.8406444,6.4089674 C13.3790761,6.46059781 14.7331133,5.40197983 15.0543478,3.89673913 C17.1123836,4.68439443 18.5126164,6.61102484 18.6263587,8.81152949 C17.3383152,8.67915374 16.0986025,9.34180899 15.4930124,10.486413 C14.8874224,11.6310171 15.037073,13.0285326 15.8713121,14.0190217 C15.6174301,14.310559 15.3874224,14.6222826 15.183618,14.9508929 C14.2659161,16.515722 13.9330357,18.3555901 14.244177,20.1428571 C13.3532609,20.5993789 12.9454581,21.6510093 13.2958075,22.5888975 C13.6461568,23.5267857 14.6434395,24.0535714 15.6154891,23.8142469 C16.5877329,23.5749223 17.226514,22.6453804 17.1013199,21.6519798 C16.9763199,20.6587733 16.1271351,19.9165372 15.1259705,19.9256599 C15.0888975,19.9256599 15.0543478,19.9343944 15.0174689,19.9369177 C14.757764,18.3598603 15.0568711,16.7416537 15.863354,15.3618012 C16.039014,15.0780279 16.2369953,14.808618 16.455163,14.5560947 C17.7649456,15.5031056 19.5782221,15.3095885 20.6585792,14.1073369 C20.9988354,14.4825311 21.2925078,14.8977096 21.5329969,15.3435559 C22.2628105,16.7624224 22.4673913,18.3936335 22.1102484,19.9487578 C22.0353261,19.9367236 21.9596273,19.9289596 21.8837345,19.9256599 C20.8720885,19.9132376 20.0083463,20.6537267 19.8662655,21.6554736 C19.7239907,22.6572205 20.347632,23.6086957 21.3229814,23.8781056 C22.2981366,24.1475155 23.3218167,23.6512034 23.7140916,22.7185559 C24.1063665,21.7859084 23.7453416,20.707104 22.8707298,20.1983696 L22.8707298,20.1983696 Z M3.20050465,21.9132376 C3.20050465,22.5720109 2.66653724,23.1057841 2.00795806,23.1057841 C1.34937888,23.1057841 0.815411478,22.5720109 0.815411478,21.9132376 C0.815411478,21.2546584 1.34937888,20.720691 2.00795806,20.720691 C2.66653724,20.720691 3.20050465,21.2546584 3.20050465,21.9132376 Z M8.76572204,23.1057841 C8.10714286,23.1057841 7.57317545,22.5720109 7.57317545,21.9132376 C7.57317545,21.2546584 8.10714286,20.720691 8.76572204,20.720691 C9.42430122,20.720691 9.95826862,21.2546584 9.95826862,21.9132376 C9.95826862,22.5720109 9.42430122,23.1057841 8.76572204,23.1057841 Z M7.97069098,11.9753494 C7.97457297,12.5265916 7.78377332,13.0615295 7.43206519,13.4860248 C6.98757764,14.0306677 6.32511647,14.3511258 5.6220885,14.3610248 C4.91925466,14.3709239 4.24786489,14.0692935 3.7884317,13.5372671 C3.40780278,13.1061724 3.19856368,12.5504658 3.20049126,11.9753494 C3.19953416,10.9565217 3.847632,10.0500776 4.81191771,9.7210792 C5.06017083,9.63237575 5.32201088,9.58792701 5.58559781,9.5902562 C6.90217391,9.59161491 7.96933227,10.6587733 7.97069098,11.9753494 L7.97069098,11.9753494 Z M11.9458463,5.61510092 C10.6284938,5.61510092 9.56075309,4.54736025 9.56075309,3.23000775 C9.56075309,1.91284939 10.6284938,0.844914584 11.9458463,0.844914584 C13.2630047,0.844914584 14.3309394,1.91284939 14.3309394,3.23000775 C14.3295807,4.54677794 13.2624224,5.61393635 11.9458463,5.61510092 Z M16.3185171,21.9132376 C16.3185171,22.5720109 15.7845497,23.1057841 15.1259705,23.1057841 C14.4673913,23.1057841 13.9334239,22.5720109 13.9334239,21.9132376 C13.9334239,21.2546584 14.4673913,20.720691 15.1259705,20.720691 C15.7845497,20.720691 16.3185171,21.2546584 16.3185171,21.9132376 Z M18.3060947,14.3604425 C16.9887423,14.3604425 15.9210015,13.2927019 15.9210015,11.9753494 C15.9210015,10.658191 16.9887423,9.5902562 18.3060947,9.5902562 C19.6232531,9.5902562 20.6911879,10.658191 20.6911879,11.9753494 C20.6898292,13.2921196 19.6226708,14.359278 18.3060947,14.3604425 Z M21.8837345,23.1057841 C21.2251553,23.1057841 20.6911879,22.5720109 20.6911879,21.9132376 C20.6911879,21.2546584 21.2251553,20.720691 21.8837345,20.720691 C22.5423136,20.720691 23.076281,21.2546584 23.076281,21.9132376 C23.076281,22.5720109 22.5423136,23.1057841 21.8837345,23.1057841 Z" transform="rotate(-90 11.96 12)"/>
</svg>
