<svg xmlns="http://www.w3.org/2000/svg" viewBox="0 0 24 24">
  <path d="M12,0 C5.37259375,0 0,5.37259375 0,12 C0,18.6274063 5.37259375,24 12,24 C12.8110313,24 13.6032187,23.9193125 14.369125,23.7659375 C14.0604062,23.6182813 14.0267188,22.5105 14.332,21.8789062 C14.6718437,21.1757812 15.73825,19.3945312 14.6835625,18.796875 C13.628875,18.1992188 13.9218437,17.9296875 13.2773125,17.2382812 C12.6327812,16.546875 12.896375,16.4429375 12.8554375,16.265625 C12.7148125,15.65625 13.4765312,14.7421875 13.5116875,14.6484375 C13.5468437,14.5546875 13.5468437,14.203125 13.535125,14.0976562 C13.5234062,13.9921875 13.0546875,13.7109375 12.9375,13.6992188 C12.8203125,13.6875 12.7617188,13.8867188 12.5976562,13.8984375 C12.4335938,13.9101562 11.71875,13.4648438 11.5664062,13.3476562 C11.4140625,13.2304688 11.34375,12.9492188 11.1328125,12.7382812 C10.921875,12.5273438 10.8984375,12.6914062 10.5703125,12.5625 C10.2421875,12.4335938 9.1875,12.046875 8.37890625,11.71875 C7.5703125,11.390625 7.5,10.9306562 7.48828125,10.6054688 C7.4765625,10.2802813 6.99609375,9.80859375 6.77075,9.46875 C6.54546875,9.12890625 6.50390625,8.66015625 6.421875,8.765625 C6.33984375,8.87109375 6.84375,10.1015625 6.76171875,10.1367188 C6.6796875,10.171875 6.50390625,9.796875 6.26953125,9.4921875 C6.03515625,9.1875 6.515625,9.3515625 5.765625,7.875 C5.015625,6.3984375 6,5.6455 6.046875,4.875 C6.09375,4.1045 6.6796875,5.15625 6.375,4.6640625 C6.0703125,4.171875 6.3984375,3.140625 6.1640625,2.765625 C5.9296875,2.390625 4.59375,3.1875 4.59375,3.1875 C4.62890625,2.82421875 5.765625,2.203125 6.5859375,1.62890625 C7.40625,1.0546875 7.90721872,1.5 8.56640625,1.7109375 C9.22559378,1.921875 9.26953125,1.8515625 9.046875,1.640625 C8.82421875,1.4296875 9.140625,1.32421875 9.65625,1.40625 C10.171875,1.48828125 10.3125,2.109375 11.0976562,2.05078125 C11.8828125,1.9921875 11.1796875,2.203125 11.2851562,2.40234375 C11.390625,2.6015625 11.1679688,2.578125 10.6523438,2.9296875 C10.1367188,3.28125 10.6640625,3.28125 11.578125,3.94921875 C12.4921875,4.6171875 12.2109375,3.50390625 12.1171875,3.01171875 C12.0234375,2.51953125 12.7851562,2.90625 12.7851562,2.90625 C13.3476562,3.28125 13.2437188,2.926875 13.653875,3.05578125 C14.0640313,3.1846875 15.1757812,4.125 15.1757812,4.125 C13.78125,4.88671875 14.6601562,4.96875 14.8945312,5.14453125 C15.1289062,5.3203125 14.4140625,5.66015625 14.4140625,5.66015625 C14.1210938,5.3671875 14.0742188,5.671875 13.8867188,5.77734375 C13.6992188,5.8828125 13.875,6.15234375 13.875,6.15234375 C12.9052813,6.3046875 13.125,7.32421875 13.1367188,7.5703125 C13.1484375,7.81640625 12.515625,8.19140625 12.3515625,8.54296875 C12.1875,8.89453125 12.7734375,9.65625 12.46875,9.703125 C12.1640625,9.75 11.859375,8.5546875 10.21875,9 C9.724125,9.13428128 8.625,9.703125 9.2109375,10.8632812 C9.796875,12.0234375 10.7695312,10.5351562 11.0976562,10.6992188 C11.4257812,10.8632812 11.0039062,11.6015625 11.0742188,11.6132812 C11.1445312,11.625 12,11.6455 12.046875,12.6445312 C12.09375,13.6435625 13.3476562,13.5585938 13.6171875,13.5820312 C13.8867188,13.6054688 14.7890625,12.84375 14.9179688,12.8085938 C15.046875,12.7734375 15.5625,12.3398438 16.6875,12.984375 C17.8125,13.6289062 18.3867188,13.5351562 18.7734375,13.8046875 C19.1601562,14.0742188 18.890625,14.6132812 19.2539062,14.7890625 C19.6171875,14.9648438 21.0703125,14.7304688 21.4335938,15.328125 C21.796875,15.9257812 19.9335938,18.9257812 19.3476562,19.2539062 C18.7617188,19.5820312 18.4921875,20.3320312 17.90625,20.8125 C17.3203125,21.2929688 16.5,21.8876875 15.7265625,22.3476562 C15.0419375,22.75475 14.91875,23.4840625 14.6137813,23.7142813 C19.98425,22.52125 24,17.7296875 24,12 C24,5.37259375 18.6274063,0 12,0 Z M14.8125,11.2617188 C14.6484375,11.3085938 14.3085938,11.6132813 13.4765625,11.1210938 C12.6445313,10.6289062 12.0703125,10.7226562 12,10.640625 C12,10.640625 11.9296875,10.4414062 12.2929688,10.40625 C13.0389375,10.3340312 13.9804688,11.0976563 14.1914063,11.109375 C14.4023438,11.1210938 14.5078125,10.8984375 14.8828125,11.0192813 C15.2578125,11.14 14.9765625,11.2148438 14.8125,11.2617188 Z M10.8867187,1.1953125 C10.805,1.135875 10.9544062,1.0674375 11.0434687,0.94921875 C11.094875,0.880906252 11.05675,0.767499997 11.1210937,0.703125 C11.296875,0.52734375 12.1640625,0.28125 11.9945,0.76171875 C11.825,1.2421875 11.015625,1.2890625 10.8867187,1.1953125 Z M12.984375,2.71875 C12.6914063,2.70703125 12.0017813,2.63415625 12.1289063,2.5078125 C12.6240313,2.015625 11.9414063,1.875 11.5195313,1.83984375 C11.0976563,1.8046875 10.921875,1.5703125 11.1328125,1.546875 C11.34375,1.5234375 12.1875,1.55859375 12.328125,1.67578125 C12.46875,1.79296875 13.2304688,2.09765625 13.2773438,2.3203125 C13.3242188,2.54296875 13.2773438,2.73046875 12.984375,2.71875 Z M15.5273437,2.63671875 C15.2929687,2.82421875 14.1135937,1.9639375 13.8867187,1.76953125 C12.9023437,0.92578125 12.375,1.20703125 12.1682812,1.06640625 C11.9615,0.92578125 12.0351562,0.73828125 12.3515625,0.45703125 C12.6679687,0.17578125 13.5585937,0.55078125 14.0742187,0.609375 C14.5898437,0.66796875 15.1875,1.06640625 15.1992187,1.54003125 C15.2109375,2.013625 15.7617187,2.44921875 15.5273437,2.63671875 Z"/>
</svg>
