<svg xmlns="http://www.w3.org/2000/svg" viewBox="0 0 24 24">
  <path d="M23.5188378,1.44953027 C23.5172688,1.44953027 23.5156998,1.44953027 23.5141889,1.44953027 L23.5141889,1.44953027 L21.9382082,1.44953027 L21.9382082,0.910256659 C21.9466925,0.696813559 21.8086199,0.504987893 21.6034867,0.445365617 C20.5093656,0.158644068 19.3827022,0.0148765133 18.2516223,0.0176260403 C16.3920581,0.0176260403 13.8584019,0.436067797 11.984891,2.34212107 C10.1253269,0.417472155 7.57307506,0.0176260403 5.71815981,0.0176260403 C4.5870799,0.0148765133 3.46041646,0.158644068 2.3662954,0.445365617 C2.16116223,0.504987893 2.02308959,0.696813559 2.03157385,0.910256659 L2.03157385,1.44488136 L0.464891041,1.44488136 C0.208154964,1.44488136 0,1.65303632 0,1.9097724 L0,16.7583923 C0,17.0151283 0.208154964,17.2232833 0.464891041,17.2232833 C0.544736077,17.2230508 0.623186441,17.202247 0.692687651,17.1628475 C0.739176755,17.1396029 5.38808717,14.5966489 11.8779661,16.2330654 L11.9476998,16.2330654 L11.98954,16.2330654 C12.026615,16.23754 12.0640387,16.23754 12.1011138,16.2330654 C18.6095884,14.5827022 23.2584988,17.1210073 23.2863923,17.1628475 C23.4302179,17.2458886 23.6074576,17.2458886 23.7512833,17.1628475 C23.8942373,17.0803293 23.9827409,16.9281356 23.9837288,16.7630412 L23.9837288,1.91442131 C23.9837288,1.65768523 23.775632,1.44953027 23.5188378,1.44953027 Z M0.929782082,16.0192155 L0.929782082,2.37931235 L2.04087167,2.37931235 L2.04087167,14.0387797 C2.0379661,14.2955157 2.2437385,14.5059952 2.50047458,14.5089007 C2.52557869,14.5091913 2.55068281,14.5074479 2.57549637,14.5036707 C3.53723971,14.3568232 4.50822276,14.2791283 5.48106538,14.2712252 C6.82866828,14.2478644 8.17063438,14.4505569 9.45123487,14.8709346 C6.55932203,14.5212203 3.62597579,14.9164939 0.929782082,16.0192155 Z M5.48106538,13.346092 C4.63548668,13.3480097 3.79089588,13.4023438 2.95205811,13.5088039 L2.95205811,1.27752058 C3.85720097,1.07587409 4.78152058,0.972958838 5.70886199,0.970692494 C7.44755448,0.970692494 9.84639225,1.37049879 11.5107022,3.2486586 L11.5246489,14.8290944 C10.5576755,14.1968426 8.67021792,13.346092 5.48106538,13.346092 Z M12.454431,3.2486586 C14.1187409,1.38909443 16.5175787,0.970692494 18.2562712,0.970692494 C19.1835545,0.973423729 20.1078741,1.07628087 21.0130751,1.27752058 L21.0130751,13.5088039 C20.1789443,13.4013559 19.3390024,13.3454528 18.4980145,13.3414431 C15.3274576,13.3414431 13.4353511,14.1921937 12.454431,14.8244455 L12.454431,3.2486586 L12.454431,3.2486586 Z M23.0492978,16.0192155 C20.3473511,14.9134722 17.4072639,14.5181404 14.5092494,14.8709346 C15.7958935,14.449046 17.1442518,14.2462954 18.4980145,14.2712252 C19.4769588,14.2766877 20.4542179,14.3528136 21.4221792,14.4990218 C21.6760097,14.5375496 21.913046,14.3629831 21.9515738,14.1091525 C21.9553511,14.084339 21.9570944,14.0592349 21.9568039,14.0341308 L21.9568039,2.37931235 L23.0678935,2.37931235 L23.0492978,16.0192155 Z" transform="translate(0 3)"/>
</svg>
