<svg xmlns="http://www.w3.org/2000/svg" viewBox="0 0 24 24">
  <path d="M1.71428571,3.42857143 L22.2857143,3.42857143 C23.232,3.42857143 24,2.66057143 24,1.71428571 C24,0.768 23.232,6.66133815e-16 22.2857143,6.66133815e-16 L1.71428571,6.66133815e-16 C0.768,6.66133815e-16 0,0.768 0,1.71428571 C0,2.66057143 0.768,3.42857143 1.71428571,3.42857143 Z M22.2857143,7 L1.71428571,7 C0.768,7 0,7.768 0,8.71428571 C0,9.66057143 0.768,10.4285714 1.71428571,10.4285714 L22.2857143,10.4285714 C23.232,10.4285714 24,9.66057143 24,8.71428571 C24,7.768 23.232,7 22.2857143,7 Z M22.2857143,14 L1.71428571,14 C0.768,14 0,14.768 0,15.7142857 C0,16.6605714 0.768,17.4285714 1.71428571,17.4285714 L22.2857143,17.4285714 C23.232,17.4285714 24,16.6605714 24,15.7142857 C24,14.768 23.232,14 22.2857143,14 Z" transform="translate(0 3)"/>
</svg>
